<svg xmlns="http://www.w3.org/2000/svg" xmlns:xlink="http://www.w3.org/1999/xlink" width="40" zoomAndPan="magnify" viewBox="0 0 30 30.000001" height="40" preserveAspectRatio="xMidYMid meet" version="1.0"><defs><clipPath id="3c6ab709fc"><path d="M 0.484375 0 L 29.515625 0 L 29.515625 29 L 0.484375 29 Z M 0.484375 0 " clip-rule="nonzero"/></clipPath></defs><g clip-path="url(#3c6ab709fc)"><path fill="#ffffff" d="M 14.738281 0.4375 C 7.519531 0.671875 1.449219 6.507812 0.949219 13.710938 C 0.421875 21.332031 5.871094 27.773438 13.078125 28.855469 L 13.078125 18.519531 L 10.769531 18.519531 C 9.730469 18.519531 8.890625 17.679688 8.890625 16.640625 C 8.890625 15.601562 9.730469 14.761719 10.769531 14.761719 L 13.078125 14.761719 L 13.078125 12.261719 C 13.078125 8.117188 15.09375 6.300781 18.535156 6.300781 C 19.046875 6.300781 19.484375 6.3125 19.855469 6.332031 C 20.761719 6.375 21.46875 7.132812 21.46875 8.042969 C 21.46875 8.992188 20.699219 9.761719 19.753906 9.761719 L 19.121094 9.761719 C 17.660156 9.761719 17.148438 11.148438 17.148438 12.707031 L 17.148438 14.761719 L 19.824219 14.761719 C 20.667969 14.761719 21.3125 15.515625 21.183594 16.351562 L 21.03125 17.355469 C 20.925781 18.027344 20.347656 18.523438 19.667969 18.523438 L 17.148438 18.523438 L 17.148438 28.886719 C 24.132812 27.941406 29.515625 21.96875 29.515625 14.730469 C 29.515625 6.671875 22.851562 0.171875 14.738281 0.4375 Z M 14.738281 0.4375 " fill-opacity="1" fill-rule="nonzero"/></g></svg>