<svg xmlns="http://www.w3.org/2000/svg" xmlns:xlink="http://www.w3.org/1999/xlink" width="40" zoomAndPan="magnify" viewBox="0 0 30 30.000001" height="40" preserveAspectRatio="xMidYMid meet" version="1.0"><defs><clipPath id="441d1a4474"><path d="M 0.484375 0 L 29.515625 0 L 29.515625 29.03125 L 0.484375 29.03125 Z M 0.484375 0 " clip-rule="nonzero"/></clipPath></defs><g clip-path="url(#441d1a4474)"><path fill="#ffffff" d="M 9.019531 0 C 4.335938 0 0.484375 3.84375 0.484375 8.535156 L 0.484375 20.496094 C 0.484375 25.179688 4.328125 29.03125 9.019531 29.03125 L 20.980469 29.03125 C 25.664062 29.03125 29.515625 25.1875 29.515625 20.496094 L 29.515625 8.535156 C 29.515625 3.851562 25.671875 0 20.980469 0 Z M 9.019531 2.640625 L 20.980469 2.640625 C 24.242188 2.640625 26.875 5.273438 26.875 8.535156 L 26.875 20.496094 C 26.875 23.757812 24.242188 26.394531 20.980469 26.394531 L 9.019531 26.394531 C 5.757812 26.394531 3.125 23.757812 3.125 20.496094 L 3.125 8.535156 C 3.125 5.273438 5.757812 2.640625 9.019531 2.640625 Z M 22.792969 5.527344 C 22.128906 5.527344 21.597656 6.058594 21.597656 6.722656 C 21.597656 7.386719 22.128906 7.917969 22.792969 7.917969 C 23.460938 7.917969 23.988281 7.386719 23.988281 6.722656 C 23.988281 6.058594 23.460938 5.527344 22.792969 5.527344 Z M 15 6.597656 C 10.644531 6.597656 7.082031 10.160156 7.082031 14.515625 C 7.082031 18.871094 10.644531 22.433594 15 22.433594 C 19.355469 22.433594 22.917969 18.871094 22.917969 14.515625 C 22.917969 10.160156 19.355469 6.597656 15 6.597656 Z M 15 9.238281 C 17.933594 9.238281 20.277344 11.582031 20.277344 14.515625 C 20.277344 17.449219 17.933594 19.792969 15 19.792969 C 12.066406 19.792969 9.722656 17.449219 9.722656 14.515625 C 9.722656 11.582031 12.066406 9.238281 15 9.238281 Z M 15 9.238281 " fill-opacity="1" fill-rule="nonzero"/></g></svg>