<svg xmlns="http://www.w3.org/2000/svg" xmlns:xlink="http://www.w3.org/1999/xlink" width="40" zoomAndPan="magnify" viewBox="0 0 30 30.000001" height="40" preserveAspectRatio="xMidYMid meet" version="1.0"><defs><clipPath id="81d8df9130"><path d="M 0.484375 0 L 29.515625 0 L 29.515625 29.03125 L 0.484375 29.03125 Z M 0.484375 0 " clip-rule="nonzero"/></clipPath></defs><g clip-path="url(#81d8df9130)"><path fill="#ffffff" d="M 24.675781 29.03125 L 5.324219 29.03125 C 5.003906 29.03125 4.691406 29 4.378906 28.9375 C 4.066406 28.875 3.765625 28.785156 3.472656 28.664062 C 3.179688 28.539062 2.898438 28.390625 2.636719 28.214844 C 2.371094 28.039062 2.128906 27.839844 1.902344 27.613281 C 1.679688 27.390625 1.476562 27.144531 1.300781 26.878906 C 1.125 26.617188 0.976562 26.335938 0.851562 26.042969 C 0.730469 25.75 0.640625 25.449219 0.578125 25.136719 C 0.515625 24.824219 0.484375 24.511719 0.484375 24.195312 L 0.484375 4.839844 C 0.484375 4.519531 0.515625 4.207031 0.578125 3.894531 C 0.640625 3.582031 0.730469 3.28125 0.851562 2.988281 C 0.976562 2.695312 1.125 2.414062 1.300781 2.152344 C 1.476562 1.886719 1.679688 1.644531 1.902344 1.417969 C 2.128906 1.195312 2.371094 0.992188 2.636719 0.816406 C 2.898438 0.640625 3.179688 0.492188 3.472656 0.371094 C 3.765625 0.246094 4.066406 0.15625 4.378906 0.09375 C 4.691406 0.03125 5.003906 0 5.324219 0 L 24.675781 0 C 24.996094 0 25.308594 0.03125 25.621094 0.09375 C 25.933594 0.15625 26.234375 0.246094 26.527344 0.371094 C 26.820312 0.492188 27.101562 0.640625 27.363281 0.816406 C 27.628906 0.992188 27.871094 1.195312 28.097656 1.417969 C 28.320312 1.644531 28.523438 1.886719 28.699219 2.152344 C 28.875 2.414062 29.023438 2.695312 29.148438 2.988281 C 29.269531 3.28125 29.359375 3.582031 29.421875 3.894531 C 29.484375 4.207031 29.515625 4.519531 29.515625 4.839844 L 29.515625 24.195312 C 29.515625 24.511719 29.484375 24.824219 29.421875 25.136719 C 29.359375 25.449219 29.269531 25.75 29.148438 26.042969 C 29.023438 26.335938 28.875 26.617188 28.699219 26.878906 C 28.523438 27.144531 28.320312 27.390625 28.097656 27.613281 C 27.871094 27.839844 27.628906 28.039062 27.363281 28.214844 C 27.101562 28.390625 26.820312 28.539062 26.527344 28.664062 C 26.234375 28.785156 25.933594 28.875 25.621094 28.9375 C 25.308594 29 24.996094 29.03125 24.675781 29.03125 Z M 5.324219 3.226562 C 5.109375 3.226562 4.902344 3.265625 4.707031 3.347656 C 4.507812 3.429688 4.332031 3.546875 4.183594 3.699219 C 4.03125 3.847656 3.914062 4.023438 3.832031 4.222656 C 3.75 4.417969 3.710938 4.625 3.710938 4.839844 L 3.710938 24.195312 C 3.710938 24.40625 3.75 24.613281 3.832031 24.8125 C 3.914062 25.007812 4.03125 25.183594 4.183594 25.335938 C 4.332031 25.484375 4.507812 25.601562 4.707031 25.683594 C 4.902344 25.765625 5.109375 25.804688 5.324219 25.804688 L 24.675781 25.804688 C 24.890625 25.804688 25.097656 25.765625 25.292969 25.683594 C 25.492188 25.601562 25.667969 25.484375 25.816406 25.335938 C 25.96875 25.183594 26.085938 25.007812 26.167969 24.8125 C 26.25 24.613281 26.289062 24.40625 26.289062 24.195312 L 26.289062 4.839844 C 26.289062 4.625 26.25 4.417969 26.167969 4.222656 C 26.085938 4.023438 25.96875 3.847656 25.816406 3.699219 C 25.667969 3.546875 25.492188 3.429688 25.292969 3.347656 C 25.097656 3.265625 24.890625 3.226562 24.675781 3.226562 Z M 5.324219 3.226562 " fill-opacity="1" fill-rule="nonzero"/></g><path fill="#ffffff" d="M 8.546875 22.582031 C 8.335938 22.582031 8.128906 22.539062 7.929688 22.457031 C 7.734375 22.375 7.558594 22.257812 7.40625 22.109375 C 7.257812 21.957031 7.140625 21.78125 7.058594 21.585938 C 6.976562 21.386719 6.933594 21.179688 6.933594 20.96875 L 6.933594 12.902344 C 6.933594 12.6875 6.976562 12.484375 7.058594 12.285156 C 7.140625 12.089844 7.257812 11.914062 7.40625 11.761719 C 7.558594 11.613281 7.734375 11.496094 7.929688 11.414062 C 8.128906 11.332031 8.335938 11.289062 8.546875 11.289062 C 8.761719 11.289062 8.96875 11.332031 9.164062 11.414062 C 9.363281 11.496094 9.539062 11.613281 9.6875 11.761719 C 9.839844 11.914062 9.957031 12.089844 10.039062 12.285156 C 10.121094 12.484375 10.160156 12.6875 10.160156 12.902344 L 10.160156 20.96875 C 10.160156 21.179688 10.121094 21.386719 10.039062 21.585938 C 9.957031 21.78125 9.839844 21.957031 9.6875 22.109375 C 9.539062 22.257812 9.363281 22.375 9.164062 22.457031 C 8.96875 22.539062 8.761719 22.582031 8.546875 22.582031 Z M 8.546875 22.582031 " fill-opacity="1" fill-rule="nonzero"/><path fill="#ffffff" d="M 8.546875 9.695312 C 8.335938 9.695312 8.128906 9.652344 7.929688 9.570312 C 7.730469 9.492188 7.558594 9.375 7.40625 9.222656 C 7.253906 9.074219 7.136719 8.898438 7.054688 8.699219 C 6.96875 8.503906 6.929688 8.296875 6.925781 8.082031 C 6.925781 7.867188 6.964844 7.664062 7.046875 7.464844 C 7.128906 7.265625 7.246094 7.089844 7.394531 6.9375 C 7.546875 6.785156 7.71875 6.667969 7.917969 6.585938 C 8.113281 6.503906 8.320312 6.460938 8.535156 6.460938 C 8.75 6.457031 8.957031 6.5 9.152344 6.578125 C 9.351562 6.660156 9.527344 6.773438 9.679688 6.925781 C 9.832031 7.074219 9.949219 7.25 10.035156 7.449219 C 10.117188 7.644531 10.160156 7.851562 10.160156 8.066406 L 10.160156 8.082031 C 10.160156 8.292969 10.121094 8.5 10.039062 8.699219 C 9.957031 8.894531 9.839844 9.070312 9.6875 9.222656 C 9.539062 9.371094 9.363281 9.488281 9.164062 9.570312 C 8.96875 9.652344 8.761719 9.695312 8.546875 9.695312 Z M 8.546875 9.695312 " fill-opacity="1" fill-rule="nonzero"/><path fill="#ffffff" d="M 15 22.582031 C 14.785156 22.582031 14.582031 22.539062 14.382812 22.457031 C 14.183594 22.375 14.011719 22.257812 13.859375 22.109375 C 13.707031 21.957031 13.589844 21.78125 13.511719 21.585938 C 13.429688 21.386719 13.386719 21.179688 13.386719 20.96875 L 13.386719 12.902344 C 13.386719 12.6875 13.429688 12.484375 13.511719 12.285156 C 13.589844 12.089844 13.707031 11.914062 13.859375 11.761719 C 14.011719 11.613281 14.183594 11.496094 14.382812 11.414062 C 14.582031 11.332031 14.785156 11.289062 15 11.289062 C 15.214844 11.289062 15.417969 11.332031 15.617188 11.414062 C 15.816406 11.496094 15.988281 11.613281 16.140625 11.761719 C 16.292969 11.914062 16.410156 12.089844 16.488281 12.285156 C 16.570312 12.484375 16.613281 12.6875 16.613281 12.902344 L 16.613281 20.96875 C 16.613281 21.179688 16.570312 21.386719 16.488281 21.585938 C 16.410156 21.78125 16.292969 21.957031 16.140625 22.109375 C 15.988281 22.257812 15.816406 22.375 15.617188 22.457031 C 15.417969 22.539062 15.214844 22.582031 15 22.582031 Z M 15 22.582031 " fill-opacity="1" fill-rule="nonzero"/><path fill="#ffffff" d="M 21.453125 22.582031 C 21.238281 22.582031 21.03125 22.539062 20.835938 22.457031 C 20.636719 22.375 20.460938 22.257812 20.3125 22.109375 C 20.160156 21.957031 20.042969 21.78125 19.960938 21.585938 C 19.878906 21.386719 19.839844 21.179688 19.839844 20.96875 L 19.839844 16.128906 C 19.839844 15.914062 19.796875 15.710938 19.714844 15.511719 C 19.632812 15.3125 19.515625 15.140625 19.367188 14.988281 C 19.214844 14.835938 19.039062 14.722656 18.84375 14.640625 C 18.644531 14.558594 18.441406 14.515625 18.226562 14.515625 C 18.011719 14.515625 17.804688 14.558594 17.609375 14.640625 C 17.410156 14.722656 17.238281 14.835938 17.085938 14.988281 C 16.933594 15.140625 16.816406 15.3125 16.734375 15.511719 C 16.652344 15.710938 16.613281 15.914062 16.613281 16.128906 C 16.613281 16.34375 16.570312 16.546875 16.488281 16.746094 C 16.410156 16.945312 16.292969 17.117188 16.140625 17.269531 C 15.988281 17.421875 15.816406 17.539062 15.617188 17.621094 C 15.417969 17.699219 15.214844 17.742188 15 17.742188 C 14.785156 17.742188 14.582031 17.699219 14.382812 17.621094 C 14.183594 17.539062 14.011719 17.421875 13.859375 17.269531 C 13.707031 17.117188 13.589844 16.945312 13.511719 16.746094 C 13.429688 16.546875 13.386719 16.34375 13.386719 16.128906 C 13.386719 15.8125 13.417969 15.496094 13.480469 15.183594 C 13.542969 14.875 13.632812 14.570312 13.753906 14.277344 C 13.878906 13.984375 14.027344 13.703125 14.203125 13.441406 C 14.378906 13.175781 14.578125 12.933594 14.804688 12.707031 C 15.027344 12.484375 15.273438 12.28125 15.539062 12.105469 C 15.800781 11.929688 16.082031 11.78125 16.375 11.660156 C 16.667969 11.535156 16.96875 11.445312 17.28125 11.382812 C 17.59375 11.320312 17.90625 11.289062 18.226562 11.289062 C 18.542969 11.289062 18.859375 11.320312 19.167969 11.382812 C 19.480469 11.445312 19.785156 11.535156 20.078125 11.660156 C 20.371094 11.78125 20.648438 11.929688 20.914062 12.105469 C 21.179688 12.28125 21.421875 12.484375 21.648438 12.707031 C 21.871094 12.933594 22.074219 13.175781 22.25 13.441406 C 22.425781 13.703125 22.574219 13.984375 22.695312 14.277344 C 22.816406 14.570312 22.910156 14.875 22.972656 15.183594 C 23.035156 15.496094 23.066406 15.8125 23.066406 16.128906 L 23.066406 20.96875 C 23.066406 21.179688 23.023438 21.386719 22.941406 21.585938 C 22.859375 21.78125 22.742188 21.957031 22.59375 22.109375 C 22.441406 22.257812 22.265625 22.375 22.070312 22.457031 C 21.871094 22.539062 21.664062 22.582031 21.453125 22.582031 Z M 21.453125 22.582031 " fill-opacity="1" fill-rule="nonzero"/></svg>