<svg xmlns="http://www.w3.org/2000/svg" xmlns:xlink="http://www.w3.org/1999/xlink" width="50" zoomAndPan="magnify" viewBox="0 0 37.5 37.499999" height="50" preserveAspectRatio="xMidYMid meet" version="1.0"><defs><clipPath id="71d44f3651"><path d="M 0 0 L 37.007812 0 L 37.007812 37.007812 L 0 37.007812 Z M 0 0 " clip-rule="nonzero"/></clipPath><clipPath id="8e64cb8c84"><path d="M 3.699219 10.066406 L 11.101562 10.066406 L 11.101562 19.6875 L 3.699219 19.6875 Z M 3.699219 10.066406 " clip-rule="nonzero"/></clipPath></defs><g clip-path="url(#71d44f3651)"><path fill="#1a0544" d="M 37.007812 18.503906 C 37.007812 28.722656 28.722656 37.007812 18.503906 37.007812 C 8.285156 37.007812 0 28.722656 0 18.503906 C 0 8.285156 8.285156 0 18.503906 0 C 28.722656 0 37.007812 8.285156 37.007812 18.503906 " fill-opacity="1" fill-rule="nonzero"/></g><path fill="#ffffff" d="M 25.078125 12.65625 C 25.078125 16.296875 22.121094 19.25 18.480469 19.25 C 14.835938 19.25 11.882812 16.296875 11.882812 12.65625 C 11.882812 9.011719 14.835938 6.058594 18.480469 6.058594 C 22.121094 6.058594 25.078125 9.011719 25.078125 12.65625 " fill-opacity="1" fill-rule="nonzero"/><path fill="#ffffff" d="M 18.480469 36.128906 C 23.148438 36.128906 27.410156 34.398438 30.667969 31.546875 C 29.65625 24.949219 26.679688 20.371094 18.480469 20.371094 C 10.507812 20.371094 7.425781 24.96875 6.339844 31.589844 C 9.589844 34.417969 13.835938 36.128906 18.480469 36.128906 " fill-opacity="1" fill-rule="nonzero"/><g clip-path="url(#8e64cb8c84)"><path fill="#1a0544" d="M 11.378906 19.226562 C 11.378906 16.582031 9.660156 14.441406 7.539062 14.441406 C 5.421875 14.441406 3.699219 16.582031 3.699219 19.226562 C 3.699219 19.636719 5.421875 19.972656 7.539062 19.972656 C 9.660156 19.972656 11.378906 19.636719 11.378906 19.226562 Z M 7.539062 10.070312 C 8.695312 10.070312 9.632812 11.003906 9.632812 12.160156 C 9.632812 13.316406 8.695312 14.253906 7.539062 14.253906 C 6.382812 14.253906 5.449219 13.316406 5.449219 12.160156 C 5.449219 11.003906 6.382812 10.070312 7.539062 10.070312 Z M 7.539062 10.070312 " fill-opacity="1" fill-rule="evenodd"/></g></svg>