<?xml version="1.0" encoding="utf-8"?>
<!-- Generator: Adobe Illustrator 24.3.0, SVG Export Plug-In . SVG Version: 6.00 Build 0)  -->
<svg version="1.0" id="katman_1" xmlns="http://www.w3.org/2000/svg" xmlns:xlink="http://www.w3.org/1999/xlink" x="0px" y="0px"
	 viewBox="0 0 841.89 595.28" style="enable-background:new 0 0 841.89 595.28;" xml:space="preserve">
<style type="text/css">
	.st0{fill:#0055D9;}
	.st1{fill:#081477;}
</style>
<path class="st0" d="M200.76,327.31c-1.69-0.52-1.82-2.86,0.13-3.63c33.49-15.84,31.28-51.79,31.28-51.79
	c-0.13-36.48-26.87-70.23-69.97-69.97c-48.03,0.26-76.85,38.03-76.59,82.69c0.39,78.14,60.1,108,78.66,107.87l-0.13-31.02
	c0-4.93,0-8.83,2.99-8.83c0,0,19.21,19.21,40.5,19.21c33.23-0.13,44.52-28.04,44.52-28.04L200.76,327.31z M162.34,303.43
	c-17,0.13-30.76-13.63-30.89-30.63c-0.13-17,13.63-30.76,30.63-30.89c17-0.13,30.76,13.63,30.89,30.63
	C192.97,289.54,179.34,303.3,162.34,303.43"/>
<g>
	<path class="st1" d="M481.93,270.97c-3.76-7.01-13.5-15.45-29.47-15.45c-24.53,0-44.39,18.69-44.39,46.21
		c0,24.66,16.36,46.47,44.39,46.47c12.2,0,23.88-5.06,29.47-15.32v12.59h20.77v-87.23h-20.77V270.97z M482.06,302.52
		c-0.26,4.28-1.3,8.44-3.38,12.2c-4.02,7.92-11.55,14.02-23.24,14.02c-18.69,0-26.48-15.71-26.48-26.48v-0.13
		c0-13.5,9.48-27.13,26.35-27.13c12.59,0,20.64,7.14,24.27,15.45C481.41,294.08,482.19,298.36,482.06,302.52"/>
	<path class="st1" d="M571.37,255.53c-14.41,0-24.66,6.62-30.89,15.45v-12.72h-19.6v117.74h20.77v-30.51v-11.55
		c3.5,5.58,12.72,14.28,29.73,14.28c25.57,0,43.23-20.77,43.23-45.56C614.72,281.36,601.87,255.53,571.37,255.53 M593.82,301.87
		c0,14.28-10.64,26.87-26.48,26.87c-7.53,0-14.15-2.99-18.95-7.79c-4.8-4.8-7.66-11.42-7.66-18.95c0-7.66,2.86-14.41,7.53-19.21
		c4.8-4.93,11.29-7.92,18.95-7.92c17.65,0,26.74,14.28,26.74,26.87v0.13H593.82z"/>
	<rect x="628.48" y="258.25" class="st1" width="20.77" height="87.23"/>
	<path class="st1" d="M735.7,227.88v28.95v12.72c-3.12-5.06-12.59-14.02-29.21-14.02c-23.63,0-43.88,17.91-43.88,46.21
		c0,25.44,17.26,46.47,44.14,46.47c17.78,0,26.09-8.7,29.86-15.32v12.59h19.86V227.88H735.7z M729.6,320.69
		c-4.93,4.93-11.81,7.92-19.34,7.92c-16.1,0-26.74-12.07-26.74-26.87v-0.13c0-13.63,9.87-26.74,26.87-26.74
		c7.53,0,14.15,2.86,18.95,7.66c4.8,4.67,7.79,11.16,7.79,18.69C737.39,308.88,734.54,315.76,729.6,320.69"/>
	<path class="st1" d="M638.87,220.61c-7.14,0-12.85,5.71-12.85,12.85s5.71,12.85,12.85,12.85c7.14,0,12.85-5.71,12.85-12.85
		S645.88,220.61,638.87,220.61"/>
	<path class="st1" d="M398.98,266.56c0-25.44-18.3-38.81-45.43-38.81h-40.89v117.61h23.63v-41.28h0.91c2.73,0,4.41,2.47,4.41,2.47
		s15.84,18.3,21.68,24.92c9.35,10.77,16.36,15.06,27.52,15.06c5.45,0,10.9-1.82,14.67-6.49l-40.37-36.87
		C385.09,299.92,398.98,286.42,398.98,266.56 M336.41,245.4h12.72c16.23,0,27.13,6.88,27.13,21.29c0,15.45-14.02,21.03-27.13,21.03
		h-12.72V245.4z"/>
</g>
</svg>
